<svg xmlns="http://www.w3.org/2000/svg" width="16" height="16" viewBox="0 0 16 16">
    <g fill="none" fill-rule="evenodd">
        <g fill="#17B31B" fill-rule="nonzero">
            <g>
                <path d="M109.455 247c-.804 0-1.455.65-1.455 1.455v13.09c0 .804.65 1.455 1.455 1.455h13.09c.804 0 1.455-.65 1.455-1.455v-13.09c0-.804-.65-1.455-1.455-1.455h-13.09zm0 1.455h13.09v13.09h-13.09v-13.09zm6.545 2.181c-2.41 0-4.364 1.954-4.364 4.364s1.954 4.364 4.364 4.364 4.364-1.954 4.364-4.364-1.954-4.364-4.364-4.364z" transform="translate(-124 -671) translate(16 424)"/>
            </g>
        </g>
    </g>
</svg>
